<mxfile host="app.diagrams.net" modified="2023-03-23T12:10:46.467Z" agent="5.0 (Windows NT 10.0; Win64; x64) AppleWebKit/537.36 (KHTML, like Gecko) Chrome/111.0.0.0 Safari/537.36" etag="KfArNf1hDz9Rwz-uOYgG" version="21.0.10" type="github">
  <diagram id="C5RBs43oDa-KdzZeNtuy" name="Page-1">
    <mxGraphModel dx="1434" dy="796" grid="1" gridSize="10" guides="1" tooltips="1" connect="1" arrows="1" fold="1" page="1" pageScale="1" pageWidth="827" pageHeight="1169" math="0" shadow="0">
      <root>
        <mxCell id="WIyWlLk6GJQsqaUBKTNV-0" />
        <mxCell id="WIyWlLk6GJQsqaUBKTNV-1" parent="WIyWlLk6GJQsqaUBKTNV-0" />
        <mxCell id="H-v5woD0Z-DZiJjF_zy7-0" value="start" style="ellipse;whiteSpace=wrap;html=1;" vertex="1" parent="WIyWlLk6GJQsqaUBKTNV-1">
          <mxGeometry x="354" y="170" width="120" height="80" as="geometry" />
        </mxCell>
        <mxCell id="H-v5woD0Z-DZiJjF_zy7-5" style="edgeStyle=orthogonalEdgeStyle;rounded=0;orthogonalLoop=1;jettySize=auto;html=1;" edge="1" parent="WIyWlLk6GJQsqaUBKTNV-1" source="H-v5woD0Z-DZiJjF_zy7-4" target="H-v5woD0Z-DZiJjF_zy7-0">
          <mxGeometry relative="1" as="geometry" />
        </mxCell>
        <mxCell id="H-v5woD0Z-DZiJjF_zy7-6" style="edgeStyle=orthogonalEdgeStyle;rounded=0;orthogonalLoop=1;jettySize=auto;html=1;" edge="1" parent="WIyWlLk6GJQsqaUBKTNV-1" source="H-v5woD0Z-DZiJjF_zy7-4">
          <mxGeometry relative="1" as="geometry">
            <mxPoint x="560" y="340" as="targetPoint" />
          </mxGeometry>
        </mxCell>
        <mxCell id="H-v5woD0Z-DZiJjF_zy7-7" style="edgeStyle=orthogonalEdgeStyle;rounded=0;orthogonalLoop=1;jettySize=auto;html=1;entryX=0.5;entryY=0;entryDx=0;entryDy=0;" edge="1" parent="WIyWlLk6GJQsqaUBKTNV-1" source="H-v5woD0Z-DZiJjF_zy7-4">
          <mxGeometry relative="1" as="geometry">
            <mxPoint x="414" y="410" as="targetPoint" />
          </mxGeometry>
        </mxCell>
        <mxCell id="H-v5woD0Z-DZiJjF_zy7-4" value="podaj a" style="rounded=0;whiteSpace=wrap;html=1;" vertex="1" parent="WIyWlLk6GJQsqaUBKTNV-1">
          <mxGeometry x="339" y="310" width="150" height="60" as="geometry" />
        </mxCell>
        <mxCell id="H-v5woD0Z-DZiJjF_zy7-9" style="edgeStyle=orthogonalEdgeStyle;rounded=0;orthogonalLoop=1;jettySize=auto;html=1;" edge="1" parent="WIyWlLk6GJQsqaUBKTNV-1" source="H-v5woD0Z-DZiJjF_zy7-8">
          <mxGeometry relative="1" as="geometry">
            <mxPoint x="414" y="530" as="targetPoint" />
          </mxGeometry>
        </mxCell>
        <mxCell id="H-v5woD0Z-DZiJjF_zy7-20" style="edgeStyle=orthogonalEdgeStyle;rounded=0;orthogonalLoop=1;jettySize=auto;html=1;" edge="1" parent="WIyWlLk6GJQsqaUBKTNV-1" source="H-v5woD0Z-DZiJjF_zy7-8">
          <mxGeometry relative="1" as="geometry">
            <mxPoint x="140" y="620" as="targetPoint" />
          </mxGeometry>
        </mxCell>
        <mxCell id="H-v5woD0Z-DZiJjF_zy7-21" style="edgeStyle=orthogonalEdgeStyle;rounded=0;orthogonalLoop=1;jettySize=auto;html=1;" edge="1" parent="WIyWlLk6GJQsqaUBKTNV-1" source="H-v5woD0Z-DZiJjF_zy7-8">
          <mxGeometry relative="1" as="geometry">
            <mxPoint x="600" y="600" as="targetPoint" />
          </mxGeometry>
        </mxCell>
        <mxCell id="H-v5woD0Z-DZiJjF_zy7-8" value="stop" style="ellipse;whiteSpace=wrap;html=1;" vertex="1" parent="WIyWlLk6GJQsqaUBKTNV-1">
          <mxGeometry x="354" y="560" width="120" height="80" as="geometry" />
        </mxCell>
        <mxCell id="H-v5woD0Z-DZiJjF_zy7-10" value="a=mod 2 =0" style="rhombus;whiteSpace=wrap;html=1;" vertex="1" parent="WIyWlLk6GJQsqaUBKTNV-1">
          <mxGeometry x="344" y="410" width="140" height="120" as="geometry" />
        </mxCell>
        <mxCell id="H-v5woD0Z-DZiJjF_zy7-14" style="edgeStyle=orthogonalEdgeStyle;rounded=0;orthogonalLoop=1;jettySize=auto;html=1;" edge="1" parent="WIyWlLk6GJQsqaUBKTNV-1" source="H-v5woD0Z-DZiJjF_zy7-11" target="H-v5woD0Z-DZiJjF_zy7-10">
          <mxGeometry relative="1" as="geometry" />
        </mxCell>
        <mxCell id="H-v5woD0Z-DZiJjF_zy7-19" style="edgeStyle=orthogonalEdgeStyle;rounded=0;orthogonalLoop=1;jettySize=auto;html=1;" edge="1" parent="WIyWlLk6GJQsqaUBKTNV-1" source="H-v5woD0Z-DZiJjF_zy7-11">
          <mxGeometry relative="1" as="geometry">
            <mxPoint x="140" y="620" as="targetPoint" />
          </mxGeometry>
        </mxCell>
        <mxCell id="H-v5woD0Z-DZiJjF_zy7-11" value="jest" style="rounded=0;whiteSpace=wrap;html=1;" vertex="1" parent="WIyWlLk6GJQsqaUBKTNV-1">
          <mxGeometry x="80" y="440" width="120" height="60" as="geometry" />
        </mxCell>
        <mxCell id="H-v5woD0Z-DZiJjF_zy7-16" style="edgeStyle=orthogonalEdgeStyle;rounded=0;orthogonalLoop=1;jettySize=auto;html=1;" edge="1" parent="WIyWlLk6GJQsqaUBKTNV-1" source="H-v5woD0Z-DZiJjF_zy7-12" target="H-v5woD0Z-DZiJjF_zy7-10">
          <mxGeometry relative="1" as="geometry" />
        </mxCell>
        <mxCell id="H-v5woD0Z-DZiJjF_zy7-17" style="edgeStyle=orthogonalEdgeStyle;rounded=0;orthogonalLoop=1;jettySize=auto;html=1;" edge="1" parent="WIyWlLk6GJQsqaUBKTNV-1" source="H-v5woD0Z-DZiJjF_zy7-12">
          <mxGeometry relative="1" as="geometry">
            <mxPoint x="600" y="600" as="targetPoint" />
          </mxGeometry>
        </mxCell>
        <mxCell id="H-v5woD0Z-DZiJjF_zy7-12" value="nie jest" style="rounded=0;whiteSpace=wrap;html=1;" vertex="1" parent="WIyWlLk6GJQsqaUBKTNV-1">
          <mxGeometry x="540" y="440" width="120" height="60" as="geometry" />
        </mxCell>
      </root>
    </mxGraphModel>
  </diagram>
</mxfile>
